<?xml version="1.0" encoding="UTF-8" standalone="no"?>
<!-- Created with Inkscape (http://www.inkscape.org/) -->

<svg
   width="210mm"
   height="297mm"
   viewBox="0 0 210 297"
   version="1.1"
   id="svg26774"
   inkscape:version="1.1.1 (c3084ef, 2021-09-22)"
   sodipodi:docname="logo.svg"
   inkscape:export-filename="/Users/ankitanand/Documents/smart-bootle/logo.png"
   inkscape:export-xdpi="96"
   inkscape:export-ydpi="96"
   xmlns:inkscape="http://www.inkscape.org/namespaces/inkscape"
   xmlns:sodipodi="http://sodipodi.sourceforge.net/DTD/sodipodi-0.dtd"
   xmlns="http://www.w3.org/2000/svg"
   xmlns:svg="http://www.w3.org/2000/svg">
  <sodipodi:namedview
     id="namedview26776"
     pagecolor="#ffffff"
     bordercolor="#666666"
     borderopacity="1.0"
     inkscape:pageshadow="2"
     inkscape:pageopacity="0.0"
     inkscape:pagecheckerboard="0"
     inkscape:document-units="mm"
     showgrid="false"
     inkscape:zoom="0.42846626"
     inkscape:cx="456.27864"
     inkscape:cy="529.79668"
     inkscape:window-width="1312"
     inkscape:window-height="802"
     inkscape:window-x="30"
     inkscape:window-y="0"
     inkscape:window-maximized="0"
     inkscape:current-layer="layer1" />
  <defs
     id="defs26771" />
  <g
     inkscape:label="Layer 1"
     inkscape:groupmode="layer"
     id="layer1">
    <text
       xml:space="preserve"
       style="font-size:302.507px;line-height:1.25;font-family:sans-serif;stroke-width:1.57557"
       x="-16.179678"
       y="248.22685"
       id="text28895"
       transform="scale(1.0272838,0.9734408)"><tspan
         sodipodi:role="line"
         id="tspan28893"
         style="font-size:302.507px;fill:#000080;stroke-width:1.57557"
         x="-16.179678"
         y="248.22685">Ọ̀</tspan></text>
    <path
       style="fill:#00ffff;fill-opacity:0.298039;stroke-width:0.891588"
       d="M 384.27434,836.18677 C 326.23681,834.07263 274.76027,816.79817 233.15021,785.47262 175.31705,741.93377 139.66367,675.37755 127.12877,587.55635 c -3.48802,-24.43756 -4.15284,-33.28586 -4.70628,-62.63719 l -0.51701,-27.41947 3.46448,1.2465 c 1.90546,0.68558 10.28512,3.9308 18.62147,7.21159 56.34035,22.17292 80.35482,29.10016 109.84187,31.68513 22.20028,1.94618 68.71117,-4.55926 105.92237,-14.81529 17.73689,-4.88858 28.2288,-8.39513 66.42329,-22.19962 47.6808,-17.23309 66.10158,-22.67311 94.20075,-27.81932 30.98574,-5.67488 59.74642,-1.5583 107.29809,15.35781 24.95053,8.87595 38.42974,13.29096 45.21116,14.80858 l 4.71776,1.05579 -0.004,12.56324 c -0.0221,67.11536 -14.21793,133.94304 -38.53263,181.39501 -24.76792,48.33645 -62.77305,86.74742 -109.021,110.18516 -41.39268,20.97717 -88.80355,30.08779 -145.77461,28.0125 z"
       id="path891"
       transform="scale(0.26458333)" />
    <path
       style="fill:#00ffff;fill-opacity:0.298039;stroke-width:1.1491"
       d="m 379.77616,835.34903 c -59.18853,-3.04179 -111.73118,-22.20005 -153.40429,-55.93475 -11.50453,-9.31299 -32.30418,-30.8572 -40.96923,-42.4358 -40.76121,-54.4668 -62.42459,-130.05201 -62.44472,-217.87446 -0.003,-11.21805 0.20319,-20.39645 0.45724,-20.39645 0.25404,0 11.1115,4.11657 24.12767,9.14794 83.9539,32.45214 108.43503,35.83303 174.20399,24.05791 29.69866,-5.31718 51.87514,-12.00472 120.65506,-36.38477 45.95704,-16.29014 73.13746,-23.01793 97.30524,-24.08531 26.49651,-1.17023 46.3137,3.01102 98.04104,20.6858 17.38007,5.93862 33.35527,11.14292 35.50046,11.56512 l 3.90032,0.76764 -0.66453,25.56296 c -1.16446,44.79407 -8.07162,87.17482 -20.34032,124.80348 -28.96169,88.82685 -93.85844,151.2098 -179.3,172.35473 -28.0418,6.93973 -63.26659,9.90307 -97.06793,8.16596 z"
       id="path967"
       transform="scale(0.26458333)" />
    <path
       style="opacity:0.1;fill:#48ff3e;fill-opacity:0.29554659;stroke-width:0;stroke:none;stroke-miterlimit:4;stroke-dasharray:none"
       d="M 354.4979,832.33187 C 321.4129,827.51534 294.70042,819.091 266.61459,804.61605 243.03341,792.46272 225.91403,779.45708 204.991,757.80042 164.49291,715.88235 139.55755,660.49989 128.44017,587.77787 c -3.56682,-23.33157 -6.04512,-87.31609 -3.382,-87.31609 0.85769,0 12.42889,4.1461 25.71378,9.21356 57.0011,21.74279 84.01403,28.44367 114.60942,28.43024 38.3254,-0.0168 80.1315,-8.64352 137.44644,-28.36207 99.66919,-34.29007 109.38739,-36.75465 144.69934,-36.69645 28.74626,0.0474 32.92959,0.96349 90.8421,19.89359 l 38.28576,12.51462 -1.02797,27.24847 c -3.16851,83.98788 -23.40731,151.17391 -60.68317,201.44785 -41.10226,55.43462 -98.62911,88.59587 -170.21874,98.12231 -20.92407,2.78438 -71.2773,2.81673 -90.22723,0.0579 z"
       id="path1858"
       transform="scale(0.26458333)" />
    <path
       style="opacity:0.1;fill:#00ffff;fill-opacity:0.295547;stroke:none;stroke-width:0;stroke-miterlimit:4;stroke-dasharray:none"
       d="m 376.23859,834.96659 c -45.13078,-2.95158 -87.78564,-15.6953 -122.25254,-36.52462 -17.00839,-10.27865 -27.79764,-18.6928 -42.31538,-33.00029 -17.70073,-17.44437 -26.85569,-28.43934 -37.04487,-44.49034 -30.07723,-47.38059 -46.88415,-105.62929 -50.82003,-176.12977 -0.59924,-10.73375 -0.58056,-45.65789 0.0244,-45.65789 0.25635,0 8.0105,2.88697 17.23147,6.4155 50.02353,19.14218 70.70684,25.7985 92.49602,29.76718 12.07567,2.19945 17.67518,2.65394 32.48734,2.63681 14.94538,-0.0173 20.37607,-0.43493 36.99105,-2.84481 39.24026,-5.6915 61.02265,-11.83068 138.17721,-38.9441 50.15629,-17.62577 74.67939,-23.63323 100.20649,-24.54773 l 7.79316,-0.27919 -0.11034,162.56701 -0.11035,162.56701 -6.36576,3.74094 c -23.24993,13.66319 -50.34849,23.9199 -77.2672,29.24536 -13.21779,2.61494 -29.24216,4.59202 -44.77986,5.52494 -8.42377,0.50578 -36.34677,0.47681 -44.34083,-0.046 z"
       id="path3968"
       transform="scale(0.26458333)"
       inkscape:export-filename="/Users/ankitanand/Documents/smart-bootle/path3968.png"
       inkscape:export-xdpi="96"
       inkscape:export-ydpi="96" />
  </g>
</svg>
